<?xml version="1.0" encoding="utf-8"?>
<!-- Generator: Adobe Illustrator 28.0.0, SVG Export Plug-In . SVG Version: 6.00 Build 0)  -->
<svg version="1.1" id="Ebene_1" xmlns="http://www.w3.org/2000/svg" xmlns:xlink="http://www.w3.org/1999/xlink" x="0px" y="0px"
	 viewBox="0 0 345.9 121.6" style="enable-background:new 0 0 345.9 121.6;" xml:space="preserve">
<style type="text/css">
	.st0{fill:#FFDD00;}
	.st1{fill:#F39200;}
	.st2{fill:#16BAE7;}
	.st3{fill:#AFCA0B;}
	.st4{fill:#1EA64A;}
	.st5{fill:#010202;}
	.st6{fill:#FFFFFF;}
</style>
<g>
	<g>
		<path class="st0" d="M70.6,20.9c0-9.2-8-16.6-16.6-16.6s-16.6,7.4-16.6,16.6c0,1.7-0.4,3.6,2.1,10c1.4,3.5,14.5,26.6,14.5,26.6
			s13.1-23,14.5-26.6C71,24.5,70.6,22.7,70.6,20.9z M54,28.5c-3.9,0-7.1-3.2-7.1-7.3c0-4,3.2-7.3,7.1-7.3c3.9,0,7.1,3.2,7.1,7.3
			C61.1,25.2,57.9,28.5,54,28.5z"/>
	</g>
	<g>
		<path class="st1" d="M95.3,55.5c7.9-4.6,10.4-15.2,6.1-22.7s-14.8-10.7-22.7-6.1c-1.5,0.9-3.3,1.4-7.6,6.8
			c-2.3,2.9-15.7,25.9-15.7,25.9s26.5-0.1,30.3-0.7C92.4,57.7,93.8,56.4,95.3,55.5z M80.5,44.9c-2-3.4-0.8-7.8,2.7-9.8
			c3.5-2,7.9-0.9,9.9,2.6c2,3.4,0.8,7.8-2.7,9.8C86.9,49.5,82.5,48.3,80.5,44.9z"/>
	</g>
	<g>
		<path class="st2" d="M37.3,99.7c0,9.2,8,16.6,16.6,16.6s16.6-7.4,16.6-16.6c0-1.7,0.4-3.6-2.1-10c-1.4-3.5-14.5-26.6-14.5-26.6
			s-13.1,23-14.5,26.6C36.9,96.1,37.3,98,37.3,99.7z M53.9,92.2c3.9,0,7.1,3.2,7.1,7.3c0,4-3.2,7.3-7.1,7.3c-3.9,0-7.1-3.2-7.1-7.3
			C46.8,95.4,50,92.2,53.9,92.2z"/>
	</g>
	<g>
		<path class="st3" d="M29.2,26.7c-7.9-4.6-18.4-1.4-22.7,6.1s-1.9,18.1,6.1,22.7c1.5,0.9,2.9,2.2,9.7,3.2
			c3.7,0.5,30.3,0.7,30.3,0.7S39.2,36.5,36.8,33.5C32.5,28.1,30.7,27.6,29.2,26.7z M27.4,44.9c-2,3.4-6.4,4.6-9.9,2.6
			c-3.5-2-4.7-6.4-2.7-9.8c2-3.4,6.4-4.6,9.9-2.6C28.2,37,29.4,41.4,27.4,44.9z"/>
	</g>
	<g>
		<path class="st4" d="M12.6,65.2C4.6,69.7,2.2,80.4,6.5,87.9c4.3,7.5,14.8,10.7,22.7,6.1c1.5-0.9,3.3-1.4,7.6-6.8
			c2.3-2.9,15.7-25.9,15.7-25.9S26,61.4,22.2,62C15.5,63,14.1,64.3,12.6,65.2z M27.4,75.8c2,3.4,0.8,7.8-2.7,9.8
			c-3.5,2-7.9,0.9-9.9-2.6c-2-3.4-0.8-7.8,2.7-9.8C21,71.2,25.4,72.4,27.4,75.8z"/>
	</g>
</g>
<g>
	<path class="st5" d="M94.7,85.5c0-1-0.3-1.8-0.8-2.4s-1.5-1.1-2.9-1.7c-2.6-1-4.4-2.1-5.5-3.4s-1.7-2.9-1.7-4.6
		c0-2.2,0.8-3.9,2.3-5.2s3.5-2,5.8-2c1.6,0,3,0.3,4.2,1s2.2,1.6,2.8,2.8s1,2.6,1,4.1h-5.2c0-1.2-0.3-2.1-0.8-2.7s-1.2-0.9-2.2-0.9
		c-0.9,0-1.6,0.3-2.1,0.8s-0.8,1.3-0.8,2.2c0,0.7,0.3,1.3,0.8,1.9s1.6,1.2,3,1.8c2.5,0.9,4.3,2,5.4,3.3s1.7,3,1.7,5
		c0,2.2-0.7,4-2.1,5.2s-3.3,1.9-5.8,1.9c-1.7,0-3.2-0.3-4.5-1s-2.4-1.7-3.2-2.9s-1.2-2.8-1.2-4.5h5.2c0,1.5,0.3,2.5,0.9,3.2
		s1.5,1,2.8,1C93.8,88.3,94.7,87.4,94.7,85.5z"/>
	<path class="st5" d="M108.8,68.5v4.7h2.5v3.7h-2.5v9.5c0,0.8,0.1,1.3,0.3,1.5c0.2,0.3,0.6,0.4,1.2,0.4c0.5,0,0.9,0,1.2-0.1l0,3.9
		c-0.8,0.3-1.8,0.5-2.7,0.5c-3.2,0-4.8-1.8-4.9-5.5V76.9h-2.2v-3.7h2.2v-4.7H108.8z"/>
	<path class="st5" d="M123.1,92.2c-0.1-0.3-0.3-0.8-0.4-1.5c-0.9,1.2-2.1,1.8-3.6,1.8c-1.6,0-2.9-0.5-4-1.6s-1.6-2.4-1.6-4.1
		c0-2,0.6-3.5,1.9-4.6s3.1-1.6,5.5-1.7h1.5V79c0-0.9-0.1-1.5-0.4-1.8s-0.7-0.5-1.3-0.5c-1.2,0-1.9,0.7-1.9,2.2h-5
		c0-1.8,0.7-3.2,2-4.4s3-1.7,5-1.7c2.1,0,3.7,0.5,4.8,1.6s1.7,2.6,1.7,4.6V88c0,1.6,0.3,2.9,0.7,3.8v0.3H123.1z M120.2,88.6
		c0.6,0,1-0.1,1.4-0.3s0.7-0.5,0.9-0.8v-4h-1.2c-0.8,0-1.5,0.3-2,0.8s-0.7,1.3-0.7,2.2C118.5,87.9,119.1,88.6,120.2,88.6z"/>
	<path class="st5" d="M130.4,82.1c0-3.1,0.5-5.4,1.6-7s2.6-2.3,4.6-2.3c1.5,0,2.7,0.6,3.7,1.9v-9.5h5v27h-4.5l-0.2-1.9
		c-1,1.5-2.3,2.3-3.9,2.3c-2,0-3.5-0.8-4.6-2.3s-1.6-3.8-1.6-6.7V82.1z M135.4,83.3c0,1.9,0.2,3.2,0.6,3.9s1.1,1.1,2,1.1
		c1,0,1.7-0.4,2.2-1.3v-8.7c-0.5-0.9-1.2-1.4-2.2-1.4c-0.9,0-1.6,0.4-2,1.1s-0.6,2.1-0.6,3.9V83.3z"/>
	<path class="st5" d="M154.7,68.5v4.7h2.5v3.7h-2.5v9.5c0,0.8,0.1,1.3,0.3,1.5c0.2,0.3,0.6,0.4,1.2,0.4c0.5,0,0.9,0,1.2-0.1l0,3.9
		c-0.8,0.3-1.8,0.5-2.7,0.5c-3.2,0-4.8-1.8-4.9-5.5V76.9h-2.2v-3.7h2.2v-4.7H154.7z"/>
	<path class="st5" d="M159.6,89.7c0-0.8,0.3-1.5,0.8-2s1.2-0.8,2.1-0.8c0.8,0,1.5,0.3,2.1,0.8s0.8,1.2,0.8,2c0,0.8-0.3,1.5-0.8,2
		s-1.2,0.7-2.1,0.7c-0.8,0-1.5-0.3-2.1-0.8S159.6,90.5,159.6,89.7z"/>
	<path class="st5" d="M175.1,87.9h9.1v4.3h-14.2V66.6h5.2V87.9z"/>
	<path class="st5" d="M193.8,92.2c-0.1-0.3-0.3-0.8-0.4-1.5c-0.9,1.2-2.1,1.8-3.6,1.8c-1.6,0-2.9-0.5-4-1.6s-1.6-2.4-1.6-4.1
		c0-2,0.6-3.5,1.9-4.6s3.1-1.6,5.5-1.7h1.5V79c0-0.9-0.1-1.5-0.4-1.8s-0.7-0.5-1.3-0.5c-1.2,0-1.9,0.7-1.9,2.2h-5
		c0-1.8,0.7-3.2,2-4.4s3-1.7,5-1.7c2.1,0,3.7,0.5,4.8,1.6s1.7,2.6,1.7,4.6V88c0,1.6,0.3,2.9,0.7,3.8v0.3H193.8z M190.9,88.6
		c0.6,0,1-0.1,1.4-0.3s0.7-0.5,0.9-0.8v-4h-1.2c-0.8,0-1.5,0.3-2,0.8s-0.7,1.3-0.7,2.2C189.2,87.9,189.8,88.6,190.9,88.6z"/>
	<path class="st5" d="M206.3,73.2l0.1,1.9c1.1-1.5,2.6-2.2,4.4-2.2c3.3,0,5,2.3,5,6.9v12.5h-5V80.1c0-1.1-0.2-1.9-0.5-2.3
		s-0.9-0.7-1.7-0.7c-0.9,0-1.6,0.5-2.1,1.4v13.8h-5v-19H206.3z"/>
	<path class="st5" d="M218.8,82.1c0-3.1,0.5-5.4,1.6-7s2.6-2.3,4.6-2.3c1.5,0,2.7,0.6,3.7,1.9v-9.5h5v27h-4.5l-0.2-1.9
		c-1,1.5-2.3,2.3-3.9,2.3c-2,0-3.5-0.8-4.6-2.3s-1.6-3.8-1.6-6.7V82.1z M223.8,83.3c0,1.9,0.2,3.2,0.6,3.9s1.1,1.1,2,1.1
		c1,0,1.7-0.4,2.2-1.3v-8.7c-0.5-0.9-1.2-1.4-2.2-1.4c-0.9,0-1.6,0.4-2,1.1s-0.6,2.1-0.6,3.9V83.3z"/>
	<path class="st5" d="M235.5,89.7c0-0.8,0.3-1.5,0.8-2s1.2-0.8,2.1-0.8c0.8,0,1.5,0.3,2.1,0.8s0.8,1.2,0.8,2c0,0.8-0.3,1.5-0.8,2
		s-1.2,0.7-2.1,0.7c-0.8,0-1.5-0.3-2.1-0.8S235.5,90.5,235.5,89.7z"/>
	<path class="st5" d="M253,82.3l-2,2.6v7.3h-5.2V66.6h5.2v11.2l1.6-2.8l4.8-8.4h6.3l-7.3,11.2l7.5,14.3h-6.1L253,82.3z"/>
	<path class="st5" d="M270.7,92.2h-5v-27h5V92.2z"/>
	<path class="st5" d="M274.6,68.2c0-0.8,0.2-1.4,0.7-1.9s1.1-0.7,2-0.7s1.5,0.2,2,0.7s0.7,1.1,0.7,1.9c0,0.8-0.2,1.4-0.7,1.9
		s-1.1,0.8-2,0.8s-1.5-0.3-2-0.8S274.6,69,274.6,68.2z M279.8,92.2h-5v-19h5V92.2z"/>
	<path class="st5" d="M288.3,73.2l0.1,1.8c1.1-1.4,2.6-2.1,4.4-2.1c1.9,0,3.2,0.9,4,2.6c1.1-1.7,2.6-2.6,4.7-2.6
		c3.3,0,5,2.3,5.1,6.9v12.5h-5V80c0-1.1-0.2-1.9-0.5-2.4s-0.8-0.7-1.5-0.7c-0.9,0-1.6,0.6-2.1,1.7l0,0.6v12.9h-5V80.1
		c0-1.1-0.1-1.9-0.4-2.4s-0.8-0.7-1.6-0.7c-0.9,0-1.5,0.5-2,1.4v13.8h-5v-19H288.3z"/>
	<path class="st5" d="M319.4,92.2c-0.1-0.3-0.3-0.8-0.4-1.5c-0.9,1.2-2.1,1.8-3.6,1.8c-1.6,0-2.9-0.5-4-1.6s-1.6-2.4-1.6-4.1
		c0-2,0.6-3.5,1.9-4.6s3.1-1.6,5.5-1.7h1.5V79c0-0.9-0.1-1.5-0.4-1.8s-0.7-0.5-1.3-0.5c-1.2,0-1.9,0.7-1.9,2.2h-5
		c0-1.8,0.7-3.2,2-4.4s3-1.7,5-1.7c2.1,0,3.7,0.5,4.8,1.6s1.7,2.6,1.7,4.6V88c0,1.6,0.3,2.9,0.7,3.8v0.3H319.4z M316.4,88.6
		c0.6,0,1-0.1,1.4-0.3s0.7-0.5,0.9-0.8v-4h-1.2c-0.8,0-1.5,0.3-2,0.8s-0.7,1.3-0.7,2.2C314.8,87.9,315.3,88.6,316.4,88.6z"/>
	<path class="st5" d="M326.1,89.8c0-0.8,0.3-1.5,0.8-2s1.2-0.8,2-0.8c0.8,0,1.4,0.3,2,0.8s0.8,1.2,0.8,2c0,0.8-0.2,1.4-0.7,1.9
		s-1.2,0.8-2,0.8c-0.8,0-1.5-0.3-2-0.8S326.1,90.6,326.1,89.8z M330.9,84.3h-4.1l-0.6-17.7h5.3L330.9,84.3z"/>
</g>
<rect class="st1"
      x="82.9" y="96.9"
      width="63.7" height="18.7"
      rx="2.9" ry="2.9" />
<g transform="translate(89.6,99.7)" id="svgGroup" stroke-linecap="round" font-size="9pt" stroke="#ffffff" stroke-width="0.2mm" fill="#ffffff" style="stroke:#ffffff;stroke-width:0.2mm;fill:#ffffff"><path d="M 8.117 4.15 L 6.623 4.15 A 3.954 3.954 0 0 0 6.637 3.822 Q 6.637 3.404 6.544 3.021 A 1.77 1.77 0 0 0 6.332 2.503 A 1.551 1.551 0 0 0 6.042 2.158 Q 5.726 1.878 5.187 1.822 A 2.65 2.65 0 0 0 4.979 1.81 A 2.695 2.695 0 0 0 4.906 1.809 Q 4.337 1.809 3.896 2.054 Q 3.427 2.316 3.14 2.781 A 2.471 2.471 0 0 0 2.811 3.672 A 2.924 2.924 0 0 0 2.788 3.835 A 2.053 2.053 0 0 0 2.77 4.031 Q 2.763 4.23 2.799 4.405 A 1.245 1.245 0 0 0 2.854 4.594 Q 2.979 4.922 3.223 5.176 A 2.595 2.595 0 0 0 3.711 5.568 A 2.951 2.951 0 0 0 3.796 5.62 Q 4.124 5.811 4.473 5.96 A 7.793 7.793 0 0 1 5.223 6.318 A 6.491 6.491 0 0 1 5.627 6.558 A 3.989 3.989 0 0 1 6.3 7.099 A 3.552 3.552 0 0 1 6.502 7.321 Q 6.863 7.753 7.034 8.317 Q 7.204 8.882 7.137 9.621 Q 7.071 10.393 6.747 11.011 Q 6.423 11.629 5.9 12.061 Q 5.378 12.493 4.705 12.713 A 4.204 4.204 0 0 1 3.507 12.915 Q 3.442 12.917 3.376 12.917 A 4.91 4.91 0 0 1 3.269 12.916 A 3.842 3.842 0 0 1 2.447 12.813 A 3.163 3.163 0 0 1 1.866 12.613 A 3.053 3.053 0 0 1 0.812 11.824 Q 0.38 11.322 0.173 10.662 A 3.823 3.823 0 0 1 0.003 9.654 Q 0 9.573 0 9.49 A 4.637 4.637 0 0 1 0.007 9.239 L 1.501 9.247 A 3.551 3.551 0 0 0 1.488 9.552 Q 1.488 9.842 1.538 10.111 A 2.796 2.796 0 0 0 1.547 10.156 A 2.135 2.135 0 0 0 1.709 10.65 A 1.846 1.846 0 0 0 1.858 10.907 A 1.568 1.568 0 0 0 2.451 11.418 A 1.704 1.704 0 0 0 2.861 11.56 Q 3.051 11.601 3.27 11.61 A 3.013 3.013 0 0 0 3.352 11.613 A 2.992 2.992 0 0 0 3.432 11.614 Q 4.006 11.614 4.464 11.389 Q 4.954 11.148 5.265 10.696 A 2.242 2.242 0 0 0 5.599 9.926 A 2.789 2.789 0 0 0 5.651 9.629 Q 5.71 9.147 5.606 8.795 Q 5.502 8.442 5.261 8.185 Q 5.021 7.927 4.68 7.728 A 6.291 6.291 0 0 0 4.229 7.489 A 7.482 7.482 0 0 0 3.933 7.354 A 7.345 7.345 0 0 1 2.913 6.822 A 6.792 6.792 0 0 1 2.85 6.782 A 4.212 4.212 0 0 1 2.097 6.167 A 3.865 3.865 0 0 1 1.978 6.039 A 2.84 2.84 0 0 1 1.422 5.08 A 2.588 2.588 0 0 1 1.295 4.488 Q 1.267 4.206 1.29 3.892 A 4.083 4.083 0 0 1 1.294 3.852 A 3.718 3.718 0 0 1 1.525 2.801 A 3.414 3.414 0 0 1 1.667 2.482 A 3.537 3.537 0 0 1 2.493 1.411 A 3.654 3.654 0 0 1 3.663 0.722 A 3.774 3.774 0 0 1 4.967 0.497 A 4.228 4.228 0 0 1 5.062 0.498 A 3.687 3.687 0 0 1 5.878 0.604 A 2.709 2.709 0 0 1 6.801 1.025 A 3.004 3.004 0 0 1 7.843 2.353 Q 8.183 3.179 8.117 4.15 Z M 13.662 8.749 L 14.16 8.732 A 12.115 12.115 0 0 1 13.878 10.214 A 5.468 5.468 0 0 1 13.465 11.33 A 4.954 4.954 0 0 1 13.326 11.588 A 2.793 2.793 0 0 1 12.367 12.58 A 2.233 2.233 0 0 1 11.654 12.86 Q 11.297 12.936 10.873 12.924 Q 10.331 12.911 9.959 12.721 A 1.389 1.389 0 0 1 9.76 12.596 Q 9.345 12.285 9.138 11.791 A 3.292 3.292 0 0 1 8.911 10.937 A 3.85 3.85 0 0 1 8.889 10.712 A 6.318 6.318 0 0 1 8.873 10.265 A 6.008 6.008 0 0 1 8.914 9.563 L 9.885 3.769 L 11.313 3.769 L 10.341 9.587 Q 10.318 9.835 10.309 10.148 A 12.314 12.314 0 0 0 10.308 10.193 A 2.928 2.928 0 0 0 10.307 10.265 A 2.722 2.722 0 0 0 10.37 10.853 A 1.258 1.258 0 0 0 10.472 11.146 A 1.029 1.029 0 0 0 10.636 11.385 A 0.665 0.665 0 0 0 10.926 11.566 Q 11.05 11.606 11.205 11.613 A 2.867 2.867 0 0 0 11.348 11.616 Q 12.079 11.616 12.541 11.223 A 2.646 2.646 0 0 0 13.221 10.32 A 3.181 3.181 0 0 0 13.309 10.115 A 5.944 5.944 0 0 0 13.662 8.749 Z M 48.791 0 L 50.218 0 L 48.002 12.75 L 46.574 12.75 L 48.791 0 Z M 21.008 12.75 L 21.199 10.916 L 23.091 0 L 24.519 0 L 22.303 12.75 L 21.008 12.75 Z M 25.382 10.517 L 26.877 1.585 L 28.313 1.585 L 26.794 10.542 Q 26.769 10.758 26.777 10.999 A 0.99 0.99 0 0 0 26.801 11.188 A 0.708 0.708 0 0 0 26.889 11.405 Q 26.976 11.544 27.187 11.573 A 0.841 0.841 0 0 0 27.275 11.58 A 1.562 1.562 0 0 0 27.574 11.551 A 17.113 17.113 0 0 1 27.847 11.5 A 15.337 15.337 0 0 1 27.864 11.497 L 27.74 12.758 A 2.402 2.402 0 0 1 27.279 12.879 A 2.496 2.496 0 0 1 26.889 12.909 A 2.536 2.536 0 0 1 26.802 12.908 A 1.787 1.787 0 0 1 26.429 12.866 Q 26.196 12.814 26.024 12.693 A 0.976 0.976 0 0 1 25.835 12.522 A 1.792 1.792 0 0 1 25.484 11.857 A 2.265 2.265 0 0 1 25.424 11.592 A 4.298 4.298 0 0 1 25.365 10.89 A 3.93 3.93 0 0 1 25.382 10.517 Z M 38.614 8.691 L 38.722 7.844 A 6.883 6.883 0 0 1 39.124 6.275 A 5.193 5.193 0 0 1 39.909 4.897 A 3.612 3.612 0 0 1 41.092 3.926 A 2.936 2.936 0 0 1 42.074 3.628 Q 42.372 3.591 42.698 3.603 A 3.42 3.42 0 0 1 43.345 3.68 Q 43.736 3.767 44.047 3.951 A 2.09 2.09 0 0 1 44.134 4.005 Q 44.707 4.383 45.026 4.997 A 4.03 4.03 0 0 1 45.417 6.167 A 4.629 4.629 0 0 1 45.445 6.35 A 6.332 6.332 0 0 1 45.502 7.197 A 6.416 6.416 0 0 1 45.47 7.836 L 45.362 8.691 Q 45.254 9.488 44.96 10.256 Q 44.665 11.023 44.171 11.634 A 3.631 3.631 0 0 1 42.984 12.596 Q 42.291 12.949 41.386 12.916 A 3.379 3.379 0 0 1 40.752 12.847 Q 40.372 12.767 40.069 12.594 A 2.014 2.014 0 0 1 39.946 12.518 Q 39.378 12.136 39.058 11.521 A 4.03 4.03 0 0 1 38.667 10.351 A 4.629 4.629 0 0 1 38.639 10.168 A 6.312 6.312 0 0 1 38.582 9.324 A 6.29 6.29 0 0 1 38.614 8.691 Z M 16.741 8.691 L 16.841 7.861 A 9.672 9.672 0 0 1 17.169 6.354 A 5.511 5.511 0 0 1 17.804 4.96 A 3.128 3.128 0 0 1 18.841 3.947 Q 19.421 3.6 20.219 3.6 A 3.797 3.797 0 0 1 20.36 3.603 A 2.51 2.51 0 0 1 20.88 3.67 Q 21.306 3.775 21.601 4.038 A 2.417 2.417 0 0 1 22.239 4.96 A 2.88 2.88 0 0 1 22.282 5.076 Q 22.502 5.703 22.548 6.4 A 10.036 10.036 0 0 1 22.569 6.969 Q 22.573 7.354 22.544 7.711 L 22.394 8.832 Q 22.286 9.496 22.054 10.222 Q 21.821 10.949 21.427 11.571 A 3.296 3.296 0 0 1 20.672 12.415 A 3.108 3.108 0 0 1 20.452 12.572 Q 19.907 12.926 19.157 12.926 A 3.26 3.26 0 0 1 19.057 12.924 A 2.886 2.886 0 0 1 18.5 12.857 Q 18.042 12.752 17.725 12.489 A 2.425 2.425 0 0 1 17.013 11.488 A 2.866 2.866 0 0 1 16.994 11.438 Q 16.758 10.799 16.712 10.073 A 8.622 8.622 0 0 1 16.695 9.532 Q 16.695 9.125 16.736 8.742 A 6.862 6.862 0 0 1 16.741 8.691 Z M 31.052 3.769 L 32.48 3.769 L 30.919 12.75 L 29.491 12.75 L 31.052 3.769 Z M 36.107 3.769 L 35.899 5.238 L 34.596 12.75 L 33.16 12.75 L 34.721 3.769 L 36.107 3.769 Z M 12.823 12.75 L 13.122 10.592 L 14.309 3.769 L 15.745 3.769 L 14.185 12.75 L 12.823 12.75 Z M 40.158 7.836 L 40.05 8.708 A 6.846 6.846 0 0 0 40.022 9.116 Q 40.015 9.282 40.015 9.46 A 9.983 9.983 0 0 0 40.017 9.625 A 3.641 3.641 0 0 0 40.15 10.555 A 3.422 3.422 0 0 0 40.158 10.583 A 1.81 1.81 0 0 0 40.378 11.072 A 1.596 1.596 0 0 0 40.602 11.343 A 1.093 1.093 0 0 0 41.051 11.603 Q 41.216 11.653 41.412 11.668 A 2.079 2.079 0 0 0 41.469 11.671 A 2.622 2.622 0 0 0 41.607 11.675 Q 41.844 11.675 42.051 11.629 A 1.563 1.563 0 0 0 42.536 11.438 A 2.238 2.238 0 0 0 43.258 10.729 A 3.747 3.747 0 0 0 43.697 9.766 A 4.199 4.199 0 0 0 43.702 9.749 A 6.79 6.79 0 0 0 43.918 8.756 A 6.276 6.276 0 0 0 43.926 8.691 L 44.034 7.828 A 6.898 6.898 0 0 0 44.063 7.397 Q 44.069 7.242 44.069 7.078 A 9.824 9.824 0 0 0 44.067 6.915 A 3.666 3.666 0 0 0 43.926 5.956 A 1.842 1.842 0 0 0 43.706 5.463 A 1.62 1.62 0 0 0 43.482 5.188 Q 43.191 4.901 42.68 4.86 A 2.089 2.089 0 0 0 42.607 4.856 A 2.334 2.334 0 0 0 42.508 4.854 Q 41.98 4.854 41.581 5.101 A 2.272 2.272 0 0 0 40.864 5.813 A 2.63 2.63 0 0 0 40.855 5.827 Q 40.565 6.284 40.394 6.815 Q 40.224 7.346 40.158 7.836 Z M 18.277 7.853 L 18.177 8.699 A 9.629 9.629 0 0 0 18.13 9.265 A 11.813 11.813 0 0 0 18.115 9.629 A 4.104 4.104 0 0 0 18.114 9.731 Q 18.114 10.174 18.211 10.579 A 1.613 1.613 0 0 0 18.38 11.014 A 1.381 1.381 0 0 0 18.621 11.322 A 1.001 1.001 0 0 0 18.989 11.542 Q 19.141 11.595 19.325 11.616 A 2.192 2.192 0 0 0 19.514 11.629 Q 20.103 11.646 20.572 11.322 Q 21.041 10.999 21.357 10.492 A 4.219 4.219 0 0 0 21.721 9.764 A 3.701 3.701 0 0 0 21.821 9.463 L 22.203 7.089 Q 22.211 6.729 22.131 6.357 A 3.451 3.451 0 0 0 22.128 6.346 Q 22.045 5.968 21.85 5.645 A 1.671 1.671 0 0 0 21.357 5.117 A 1.314 1.314 0 0 0 20.848 4.913 A 1.652 1.652 0 0 0 20.651 4.889 A 2.783 2.783 0 0 0 20.541 4.887 Q 20.305 4.887 20.1 4.929 A 1.587 1.587 0 0 0 19.593 5.122 Q 19.165 5.379 18.895 5.823 A 3.773 3.773 0 0 0 18.499 6.732 A 4.203 4.203 0 0 0 18.48 6.798 A 6.87 6.87 0 0 0 18.277 7.853 Z M 38.298 3.71 L 38.141 5.138 A 5.922 5.922 0 0 0 37.821 5.08 A 2.099 2.099 0 0 0 37.502 5.055 Q 37.262 5.051 37.053 5.097 A 1.453 1.453 0 0 0 36.655 5.246 Q 36.298 5.445 36.045 5.777 Q 35.792 6.109 35.617 6.508 A 5.572 5.572 0 0 0 35.335 7.313 L 34.912 7.562 A 11.116 11.116 0 0 1 35.006 6.975 Q 35.066 6.656 35.148 6.304 Q 35.31 5.611 35.617 4.976 Q 35.924 4.341 36.422 3.943 A 1.667 1.667 0 0 1 37.261 3.594 Q 37.402 3.575 37.554 3.575 A 2.556 2.556 0 0 1 37.668 3.578 A 1.711 1.711 0 0 1 37.987 3.623 Q 38.141 3.661 38.298 3.71 Z M 25.175 3.769 L 29.251 3.769 L 29.043 4.947 L 24.959 4.947 L 25.175 3.769 Z M 14.161 1.056 A 0.983 0.983 0 0 0 14.102 1.403 A 1.099 1.099 0 0 0 14.11 1.544 A 0.788 0.788 0 0 0 14.351 2.03 A 0.802 0.802 0 0 0 14.656 2.213 Q 14.804 2.262 14.982 2.258 Q 15.363 2.25 15.617 2 Q 15.87 1.751 15.87 1.37 A 1.157 1.157 0 0 0 15.87 1.345 Q 15.87 0.972 15.625 0.73 A 0.811 0.811 0 0 0 15.318 0.539 Q 15.165 0.486 14.982 0.49 A 1.131 1.131 0 0 0 14.908 0.494 A 0.841 0.841 0 0 0 14.347 0.76 A 0.883 0.883 0 0 0 14.161 1.056 Z M 10.632 1.386 Q 10.64 1.004 10.885 0.743 A 0.841 0.841 0 0 1 11.447 0.477 A 1.131 1.131 0 0 1 11.52 0.473 Q 11.698 0.469 11.846 0.519 A 0.793 0.793 0 0 1 12.159 0.714 A 0.84 0.84 0 0 1 12.403 1.246 A 1.136 1.136 0 0 1 12.408 1.353 Q 12.4 1.735 12.147 1.984 Q 11.894 2.233 11.512 2.241 A 1.114 1.114 0 0 1 11.487 2.241 Q 11.308 2.241 11.158 2.183 A 0.825 0.825 0 0 1 10.885 2.009 A 0.804 0.804 0 0 1 10.635 1.462 A 1.09 1.09 0 0 1 10.632 1.386 Z M 31.384 1.403 Q 31.4 1.038 31.616 0.768 A 0.723 0.723 0 0 1 32.137 0.494 A 0.997 0.997 0 0 1 32.206 0.49 A 1.104 1.104 0 0 1 32.229 0.489 Q 32.368 0.489 32.485 0.525 A 0.665 0.665 0 0 1 32.812 0.747 Q 33.027 1.013 33.011 1.378 Q 32.994 1.727 32.77 1.988 A 0.755 0.755 0 0 1 32.226 2.256 A 1.006 1.006 0 0 1 32.181 2.258 A 1.107 1.107 0 0 1 32.157 2.258 Q 32.023 2.258 31.911 2.225 A 0.653 0.653 0 0 1 31.587 2.013 A 0.871 0.871 0 0 1 31.384 1.472 Q 31.384 1.451 31.384 1.43 A 1.152 1.152 0 0 1 31.384 1.403 Z" vector-effect="non-scaling-stroke"/></g>
</svg>
